<?xml version="1.0" encoding="UTF-8" standalone="no"?>
<!-- Created with Inkscape (http://www.inkscape.org/) -->

<svg
   xmlns:dc="http://purl.org/dc/elements/1.1/"
   xmlns:cc="http://creativecommons.org/ns#"
   xmlns:rdf="http://www.w3.org/1999/02/22-rdf-syntax-ns#"
   xmlns:svg="http://www.w3.org/2000/svg"
   xmlns="http://www.w3.org/2000/svg"
   xmlns:xlink="http://www.w3.org/1999/xlink"
   xmlns:sodipodi="http://sodipodi.sourceforge.net/DTD/sodipodi-0.dtd"
   xmlns:inkscape="http://www.inkscape.org/namespaces/inkscape"
   width="1000"
   height="1000"
   viewBox="0 0 1000 1000"
   id="svg2"
   version="1.1"
   inkscape:version="0.91 r13725"
   sodipodi:docname="LED.svg">
  <defs
     id="defs4">
    <font
       horiz-adv-x="948"
       id="UniDreamLED"
       horiz-origin-x="0"
       horiz-origin-y="0"
       vert-origin-x="45"
       vert-origin-y="90"
       vert-adv-y="90">
      <font-face
         id="font-face3343"
         unicode-range="U+0020-F005"
         underline-position="-142"
         underline-thickness="150"
         bbox="-186 -431 2005 1767"
         cap-height="1434"
         x-height="1434"
         descent="-410"
         ascent="1638"
         panose-1="2 0 0 0 0 0 0 0 0 0"
         units-per-em="2048"
         font-stretch="normal"
         font-weight="400"
         font-family="UniDreamLED" />
      <missing-glyph
         id="missing-glyph3345"
         d="M256 0v1280h1024v-1280h-1024zM288 32h960v1216h-960v-1216z"
         horiz-adv-x="1536" />
      <glyph
         id="glyph3347"
         d="M256 0v1280h1024v-1280h-1024zM288 32h960v1216h-960v-1216z"
         horiz-adv-x="1536"
         glyph-name=".notdef" />
      <glyph
         id="glyph3349"
         horiz-adv-x="0"
         glyph-name=".null" />
      <glyph
         id="glyph3351"
         horiz-adv-x="344"
         glyph-name="space"
         unicode=" " />
      <glyph
         id="glyph3381"
         d="M659 836l-174 -226h-456l170 226h460z"
         horiz-adv-x="686"
         unicode="-"
         glyph-name="hyphen" />
      <glyph
         id="glyph3385"
         d="M334 0h-230v358h230v-358z"
         horiz-adv-x="409"
         unicode="."
         glyph-name="period" />
      <glyph
         id="glyph3389"
         d="M760 1333l-129 -129h-314l-131 129l101 101h372zM891 731l-232 143v302l129 129l103 -101v-473zM287 874l-230 -143v473l101 101l129 -129v-302zM891 229l-103 -100l-129 129v330l232 114v-473zM287 258l-129 -129l-101 100v473l230 -114v-330zM760 100l-101 -100h-372 l-101 100l131 129h314z"
         unicode="0"
         glyph-name="zero" />
      <glyph
         id="glyph3391"
         d="M308 775l-232 164v348l129 148l103 -116v-544zM312 123l-103 -131l-129 169v432l232 149v-619z"
         horiz-adv-x="344"
         unicode="1"
         glyph-name="one" />
      <glyph
         id="glyph3393"
         d="M760 1333l-129 -129h-314l-131 129l101 101h372zM891 731l-232 143v302l129 129l103 -101v-473zM831 717l-200 -101h-314l-202 101l202 129h314zM287 258l-129 -129l-101 100v473l230 -114v-330zM760 100l-101 -100h-372l-101 100l131 129h314z"
         unicode="2"
         glyph-name="two" />
      <glyph
         id="glyph3395"
         d="M760 1333l-129 -129h-314l-131 129l101 101h372zM891 731l-232 143v302l129 129l103 -101v-473zM831 717l-200 -101h-314l-202 101l202 129h314zM891 229l-103 -100l-129 129v330l232 114v-473zM760 100l-101 -100h-372l-101 100l131 129h314z"
         unicode="3"
         glyph-name="three" />
      <glyph
         id="glyph3397"
         d="M891 731l-232 143v302l129 129l103 -101v-473zM287 874l-230 -143v473l101 101l129 -129v-302zM831 717l-200 -101h-314l-202 101l202 129h314zM891 229l-103 -100l-129 129v330l232 114v-473z"
         unicode="4"
         glyph-name="four" />
      <glyph
         id="glyph3399"
         d="M760 1333l-129 -129h-314l-131 129l101 101h372zM287 874l-230 -143v473l101 101l129 -129v-302zM831 717l-200 -101h-314l-202 101l202 129h314zM891 229l-103 -100l-129 129v330l232 114v-473zM760 100l-101 -100h-372l-101 100l131 129h314z"
         unicode="5"
         glyph-name="five" />
      <glyph
         id="glyph3401"
         d="M760 1333l-129 -129h-314l-131 129l101 101h372zM287 874l-230 -143v473l101 101l129 -129v-302zM831 717l-200 -101h-314l-202 101l202 129h314zM891 229l-103 -100l-129 129v330l232 114v-473zM287 258l-129 -129l-101 100v473l230 -114v-330zM760 100l-101 -100h-372 l-101 100l131 129h314z"
         unicode="6"
         glyph-name="six" />
      <glyph
         id="glyph3403"
         d="M760 1333l-129 -129h-314l-131 129l101 101h372zM891 731l-232 143v302l129 129l103 -101v-473zM891 229l-103 -100l-129 129v330l232 114v-473z"
         unicode="7"
         glyph-name="seven" />
      <glyph
         id="glyph3405"
         d="M760 1333l-129 -129h-314l-131 129l101 101h372zM891 731l-232 143v302l129 129l103 -101v-473zM287 874l-230 -143v473l101 101l129 -129v-302zM831 717l-200 -101h-314l-202 101l202 129h314zM891 229l-103 -100l-129 129v330l232 114v-473zM287 258l-129 -129 l-101 100v473l230 -114v-330zM760 100l-101 -100h-372l-101 100l131 129h314z"
         unicode="8"
         glyph-name="eight" />
      <glyph
         id="glyph3407"
         d="M760 1333l-129 -129h-314l-131 129l101 101h372zM891 731l-232 143v302l129 129l103 -101v-473zM287 874l-230 -143v473l101 101l129 -129v-302zM831 717l-200 -101h-314l-202 101l202 129h314zM891 229l-103 -100l-129 129v330l232 114v-473zM760 100l-101 -100h-372 l-101 100l131 129h314z"
         unicode="9"
         glyph-name="nine" />
      <glyph
         id="glyph3409"
         d="M305 882h-230v303h230v-303zM309 265h-230v308h230v-308z"
         horiz-adv-x="344"
         unicode=":"
         glyph-name="colon" />
      <glyph
         id="glyph3425"
         d="M860 1434l-229 -230h-314l-231 230h774zM891 731l-232 143v302l232 229v-674zM287 874l-230 -143v674l230 -229v-302zM831 717l-200 -101h-314l-202 101l202 129h314zM891 0l-232 229v359l232 114v-702zM287 229l-230 -229v702l230 -114v-359z"
         unicode="A"
         glyph-name="A" />
      <glyph
         id="glyph3449"
         d="M1464 1434l-231 -230h-320l-139 144l-141 -144h-320l-227 230h1378zM287 874l-230 -143v674l230 -229v-302zM1491 731l-229 143v302l229 227v-672zM889 817l-115 -86l-115 86v359l113 116l117 -116v-359zM1491 0l-229 229v359l229 114v-702zM891 229l-117 -229l-115 229 v359l115 114l117 -114v-359zM287 229l-230 -229v702l230 -114v-359z"
         horiz-adv-x="1548"
         unicode="M"
         glyph-name="M" />
      <glyph
         id="glyph3455"
         d="M760 1333l-129 -129h-314l-231 230h573zM287 874l-230 -143v674l230 -229v-302zM891 731l-232 143v302l129 129l103 -101v-473zM831 717l-200 -101h-314l-202 101l202 129h314zM287 229l-230 -229v702l230 -114v-359z"
         unicode="P"
         glyph-name="P" />
      <glyph
         id="glyph3489"
         d="M860 1434l-229 -230h-314l-231 230h774zM891 731l-232 143v302l232 229v-674zM287 874l-230 -143v674l230 -229v-302zM831 717l-200 -101h-314l-202 101l202 129h314zM891 0l-232 229v359l232 114v-702zM287 229l-230 -229v702l230 -114v-359z"
         unicode="a"
         glyph-name="a" />
      <glyph
         id="glyph3513"
         d="M1464 1434l-231 -230h-320l-139 144l-141 -144h-320l-227 230h1378zM287 874l-230 -143v674l230 -229v-302zM1491 731l-229 143v302l229 227v-672zM889 817l-115 -86l-115 86v359l113 116l117 -116v-359zM1491 0l-229 229v359l229 114v-702zM891 229l-117 -229l-115 229 v359l115 114l117 -114v-359zM287 229l-230 -229v702l230 -114v-359z"
         horiz-adv-x="1548"
         unicode="m"
         glyph-name="m" />
      <glyph
         id="glyph3519"
         d="M760 1333l-129 -129h-314l-231 230h573zM287 874l-230 -143v674l230 -229v-302zM891 731l-232 143v302l129 129l103 -101v-473zM831 717l-200 -101h-314l-202 101l202 129h314zM287 229l-230 -229v702l230 -114v-359z"
         unicode="p"
         glyph-name="p" />
      <glyph
         glyph-name="cc"
         id="glyph3373"
         unicode="u"
         d="M 414.6233,-5.2815 C 268.85437,24.93574 147.68158,117.07755 82.44128,247.31528 47.36987,317.32752 38.35745,357.35351 37.89269,445.16474 37.56097,507.83876 39.269475,525.76055 48.896615,560.59322 97.369185,735.9754 241.57913,870.59459 412.58575,900.09499 583.67395,929.60946 745.8899,872.82254 857.30535,744.41205 931.4588,658.94743 969.9273,541.95257 963.5127,421.40219 957.05165,299.97964 912.4756,201.97629 826.8075,120.84688 765.38765,62.68107 706.75165,29.47416 621.4204,4.53158 566.90255,-11.4042 467.02305,-16.1437 414.6233,-5.2815 Z m 201.00365,96.66672 c 66.07565,21.80454 109.417,48.61354 160.15055,99.06194 36.1575,35.95429 47.0074,50.68225 65.94885,89.52109 C 868.44505,334.754 880,385.21353 880,447.10597 880,556.2844 841.2949,645.00862 760.6693,720.64932 715.2309,763.2784 672.4879,789.16734 617.5,807.3654 c -36.50645,12.08169 -46.7687,13.23786 -117.5,13.23786 -70.62305,0 -81.0494,-1.17033 -117.5,-13.18908 C 268.36534,769.78088 176.07565,676.18999 135.84282,557.27936 124.4679,523.66007 122.99368,511.2223 122.84727,447.63786 c -0.1564,-67.93013 0.65838,-74.01064 15.41747,-115.05545 22.55192,-62.7166 43.20145,-94.14637 96.72333,-147.2185 C 282.48921,138.26194 321.23619,113.00631 375.95553,93.48 450.2585,66.9654 539.26845,66.18741 615.62695,91.38522 Z M 323.20033,311.97095 c -35.63754,11.26515 -70.15779,47.12428 -81.05177,84.19533 -24.22066,82.42026 13.94536,166.66184 85.00895,187.63516 55.03919,16.24396 107.20329,4.32923 145.11414,-33.14534 l 24.77165,-24.48658 -30.5167,-17.01268 -30.51665,-17.01269 -17.505,17.31675 c -14.6748,14.51702 -21.04365,17.31674 -39.39242,17.31674 -12.14283,0 -27.07008,-3.59101 -33.52817,-8.06579 -35.07597,-24.30399 -33.63362,-119.29728 2.16368,-142.50037 6.54507,-4.24239 22.32929,-7.71341 35.07606,-7.71341 19.92415,0 25.69055,2.48761 41.0985,17.72988 l 17.92255,17.72984 24.40555,-11.30804 c 13.42305,-6.2194 25.54035,-13.12444 26.9273,-15.34446 4.87935,-7.81001 -27.7353,-41.6203 -53.56235,-55.52601 -32.3491,-17.41728 -79.71875,-21.4083 -116.41532,-9.80833 z m 267.71272,1.63275 c -30.2637,10.34001 -57.0124,33.43255 -72.17955,62.31373 -14.5262,27.66064 -17.6004,85.70754 -6.53365,123.36654 26.9999,91.87773 157.1916,123.37582 226.51145,54.80132 C 750.4201,542.50241 760,530.54252 760,527.50775 c 0,-3.03476 -12.81485,-11.928 -28.4774,-19.76275 l -28.4774,-14.24499 -15.863,16.63882 c -13.5553,14.2183 -19.2206,16.63881 -38.9437,16.63881 -18.18435,0 -26.28465,-2.88557 -38.18355,-13.60215 -33.00805,-29.72822 -29.36735,-112.43181 6.029,-136.95783 6.42295,-4.45042 21.53655,-7.71959 35.6882,-7.71959 21.6215,0 26.53315,2.08321 41.2113,17.47926 l 16.66425,17.47921 28.92615,-14.4898 L 767.5,374.47688 740,347.28871 C 698.0095,305.77435 647.3378,294.32549 590.91305,313.6037 Z" />
      <glyph
         glyph-name="by"
         id="glyph3388"
         unicode="v"
         d="M 415.81201,-5.0503 C 287.0169,18.22786 167.6539,104.1772 98.517663,223.42286 42.843649,319.44901 25.65619,450.11751 53.899076,562.63786 66.069889,611.12667 101.12264,683.94283 131.60897,724.06702 216.68856,836.04341 334.66266,899.07667 472.4,906.15079 645.6693,915.0498 790.70201,842.80465 886.3368,699.95641 931.49182,632.50903 953.66713,563.35173 958.39276,475.23786 965.74342,338.17782 925.90968,226.7776 836.11561,133.27399 725.54679,18.13747 570.26684,-32.9661 415.81201,-5.0503 Z m 175.15524,87.34433 c 36.69683,9.04793 88.59168,32.08146 118.243,52.48209 34.3891,23.66029 80.28431,68.99504 103.95177,102.68226 83.42003,118.73649 84.91531,293.37395 3.5535,415.01994 C 717.9721,800.11198 544.02918,859.79252 376.0887,803.6592 257.38085,763.98165 157.51374,649.33038 131.17067,522.48389 110.74045,424.10881 130.77838,322.57135 186.46224,242.30674 249.64089,151.23883 341.99143,91.25194 443.89503,75.08956 479.6264,69.42241 553.42426,73.03745 590.96725,82.29403 Z M 429.58173,151.58945 C 427.83178,153.33942 426.4,204.10617 426.4,264.40454 l 0,109.63332 -25.3,0 -25.3,0 0,97.87647 c 0,81.1409 1.22441,99.62455 7.16084,108.1 7.05996,10.07951 8.70866,10.22353 117.03916,10.22353 108.33051,0 109.97919,-0.14403 117.03918,-10.22353 5.93639,-8.47545 7.16082,-26.9591 7.16082,-108.1 l 0,-97.87647 -25.21821,0 -25.21821,0 -1.23179,-111.55 -1.23179,-111.55 -69.26827,-1.26505 c -38.09755,-0.6958 -70.70005,0.16652 -72.45,1.91664 z m 30.76924,475.03252 c -33.22305,20.25868 -32.61288,87.21037 0.9955,109.23143 17.26284,11.31104 60.04422,11.31104 77.30705,0 34.44384,-22.56847 33.64399,-92.75906 -1.2627,-110.81002 -19.54351,-10.10634 -59.21017,-9.29355 -77.03985,1.57859 z" />
      <glyph
         glyph-name="nc"
         id="glyph3404"
         unicode="x"
         d="M 446.09375,-9.7269 C 349.18653,0.37444 257.67563,44.37222 182.9718,116.78027 101.21092,196.02849 55.809313,285.0112 43.504189,390.12317 26.177544,538.12963 73.101229,672.94774 178.33711,777.51647 269.29081,867.89355 383.41997,911.52026 516.77083,906.88522 637.86849,902.67608 733.74759,862.95205 817.99017,782.08589 888.98879,713.93288 932.63534,636.66683 950.07358,548.26286 982.08026,386.0037 939.12103,234.41061 830.57953,126.59619 725.66476,22.38422 592.15724,-24.9522 446.09375,-9.7269 Z M 564.6875,77.79136 c 58.22675,9.74697 109.8113,31.9615 159.70814,68.77714 42.13181,31.08637 113.58728,113.45134 103.72559,119.56198 -1.91719,1.18795 -40.68113,18.68999 -86.14206,38.89343 l -82.65625,36.73349 -2.70701,-8.88276 c -7.58839,-24.90067 -24.82256,-49.29456 -44.85261,-63.48609 -24.4513,-17.32403 -39.99824,-23.5962 -71.63309,-28.89924 l -8.98438,-1.50609 0,-34.631 0,-34.63103 -26.35416,0 -26.35417,0 0,34.42614 0,34.42613 -21.65275,2.77687 c -26.96216,3.45776 -53.71487,11.89493 -74.8264,23.59848 -18.87773,10.46519 -42.71299,27.4269 -41.86638,29.79305 0.32181,0.89939 14.40215,15.69261 31.28966,32.8738 l 30.70452,31.23853 12.42048,-9.8918 c 13.91627,-11.08307 40.03552,-23.8159 57.58476,-28.07193 6.39247,-1.55027 19.32997,-2.89946 28.75,-2.99817 30.18537,-0.3163 49.02838,7.97777 56.74529,24.97736 9.35523,20.60862 3.27022,42.99914 -13.68488,50.35512 -14.12672,6.12887 -310.52504,137.83955 -357.36901,158.80424 -33.4302,14.96148 -41.94475,17.93631 -43.61268,15.23755 -3.63632,-5.88369 -12.38693,-41.03466 -15.76476,-63.32662 -4.91698,-32.44957 -4.23887,-86.27854 1.51056,-119.90914 10.53653,-61.63206 36.57647,-118.56219 76.65634,-167.59086 18.95691,-23.18949 57.53821,-59.5498 80.87102,-76.21558 C 365.04285,83.905 466.00248,61.2718 564.6875,77.79136 Z m 305.44652,294.9767 c 5.63778,30.27399 7.5112,93.97149 3.66701,124.68018 -7.87139,62.87953 -31.29972,122.38417 -67.70024,171.94902 -6.71559,9.14431 -25.77696,30.14191 -42.35862,46.66135 -45.21364,45.04403 -89.48231,72.92406 -143.9505,90.65876 -86.40554,28.13341 -183.6816,24.34732 -265.95514,-10.35128 -53.92529,-22.74281 -105.71786,-63.46473 -148.82222,-117.01152 -10.37766,-12.89174 -18.86689,-24.21206 -18.86496,-25.15625 0.002,-1.20458 149.79364,-69.85235 172.28201,-78.95507 0.7768,-0.31446 4.52887,6.12264 8.33786,14.30463 14.9131,32.03423 52.88047,58.35141 93.10057,64.53287 l 18.56771,2.8537 0,35.50795 0,35.50796 26.29013,0 26.2901,0 0.66302,-35.33319 0.663,-35.33319 18.69593,-2.8461 c 10.28275,-1.56535 27.17776,-5.6708 37.54448,-9.12324 20.38474,-6.78874 56.36376,-26.98331 56.36376,-31.63629 0,-1.57617 -12.87931,-15.90567 -28.6207,-31.84335 l -28.62067,-28.97761 -18.46316,9.46644 c -54.62881,28.00936 -114.76422,18.65042 -114.76422,-17.86091 l 0,-10.61979 14.97395,-7.30061 c 16.19109,-7.89401 392.5993,-176.49295 394.92321,-176.89207 0.77416,-0.13297 3.36514,10.26996 5.75769,23.11761 z" />
      <glyph
         glyph-name="nd"
         id="glyph3419"
         unicode="y"
         d="M 445.0253,-9.6123 C 295.20503,6.03335 153.19344,108.2282 84.289447,249.98161 25.181794,371.58138 24.755524,520.70035 83.164768,643.41941 140.76349,764.43555 252.59688,859.40687 375.90539,892.02104 c 68.71883,18.17561 151.52158,20.3291 223.52169,5.81322 154.3059,-31.10948 289.38919,-152.20377 338.94223,-303.84192 30.69731,-93.93741 28.21909,-218.976 -6.16423,-311.01537 C 878.34293,138.79553 744.26144,25.73319 592.23958,-3.6942 548.49967,-12.1611 491.4094,-14.4562 445.0253,-9.6123 Z m 106.00827,84.64211 c 85.94775,11.43955 158.33145,49.41514 224.48726,117.77566 51.16199,52.86701 78.11543,103.3679 93.81233,175.76989 4.76771,21.99106 5.45392,31.93875 5.45392,79.0625 0,46.73073 -0.70624,57.14249 -5.30566,78.21859 -14.32915,65.66112 -41.16167,118.91793 -85.12063,168.94614 -31.71456,36.09329 -77.46721,72.11231 -116.68916,91.86416 -21.82664,10.99172 -60.31043,24.09277 -89.45304,30.45253 -21.07646,4.59949 -31.48705,5.30561 -78.21859,5.30533 -58.36832,-3.6e-4 -77.02654,-2.61108 -119.03161,-16.65532 C 272.16587,769.39158 177.35534,672.52882 140.60194,560.19995 111.95401,472.6437 119.84433,366.52749 161.12432,284.19624 191.27363,224.06468 250.23754,160.46402 309.53125,124.11902 352.5074,97.77614 409.24231,78.77114 461.66667,73.15689 c 20.71001,-2.2179 65.71883,-1.27461 89.3669,1.87292 z m -211.5544,294.74346 0,39.53125 167.70833,0 167.70833,0 0,-39.53125 0,-39.53125 -167.70833,0 -167.70833,0 0,39.53125 z m 0,146.14584 0,39.53125 167.70833,0 167.70833,0 0,-39.53125 0,-39.53125 -167.70833,0 -167.70833,0 0,39.53125 z" />
    </font>
</defs>
</svg>
